<svg width="18" height="18" viewBox="0 0 18 18" fill="none" xmlns="http://www.w3.org/2000/svg">
<path fill-rule="evenodd" clip-rule="evenodd" d="M5 0.5C5.27614 0.5 5.5 0.723858 5.5 1V2.5H12.5V1C12.5 0.723858 12.7239 0.5 13 0.5C13.2761 0.5 13.5 0.723858 13.5 1V2.5H14.5C16.1569 2.5 17.5 3.84315 17.5 5.5V14.5C17.5 16.1569 16.1569 17.5 14.5 17.5H3.5C1.84315 17.5 0.5 16.1569 0.5 14.5V5.5C0.5 3.84315 1.84315 2.5 3.5 2.5H4.5V1C4.5 0.723858 4.72386 0.5 5 0.5ZM12.5 3.5V5C12.5 5.27614 12.7239 5.5 13 5.5C13.2761 5.5 13.5 5.27614 13.5 5V3.5H14.5C15.6046 3.5 16.5 4.39543 16.5 5.5V14.5C16.5 15.6046 15.6046 16.5 14.5 16.5H3.5C2.39543 16.5 1.5 15.6046 1.5 14.5V5.5C1.5 4.39543 2.39543 3.5 3.5 3.5H4.5V5C4.5 5.27614 4.72386 5.5 5 5.5C5.27614 5.5 5.5 5.27614 5.5 5V3.5H12.5ZM5.5 8.5V9.5H4.5V8.5H5.5ZM3.5 8.5C3.5 7.94772 3.94772 7.5 4.5 7.5H5.5C6.05228 7.5 6.5 7.94772 6.5 8.5V9.5C6.5 10.0523 6.05228 10.5 5.5 10.5H4.5C3.94772 10.5 3.5 10.0523 3.5 9.5V8.5ZM9.5 8.5H8.5V9.5H9.5V8.5ZM8.5 7.5C7.94772 7.5 7.5 7.94772 7.5 8.5V9.5C7.5 10.0523 7.94772 10.5 8.5 10.5H9.5C10.0523 10.5 10.5 10.0523 10.5 9.5V8.5C10.5 7.94772 10.0523 7.5 9.5 7.5H8.5ZM12.5 9.5V8.5H13.5V9.5H12.5ZM11.5 8.5C11.5 7.94772 11.9477 7.5 12.5 7.5H13.5C14.0523 7.5 14.5 7.94772 14.5 8.5V9.5C14.5 10.0523 14.0523 10.5 13.5 10.5H12.5C11.9477 10.5 11.5 10.0523 11.5 9.5V8.5Z" fill="#9FA5B7"/>
</svg>
