<svg width="20" height="20" viewBox="0 0 20 20" fill="none" xmlns="http://www.w3.org/2000/svg">
<path fill-rule="evenodd" clip-rule="evenodd" d="M6 1.5C6.27614 1.5 6.5 1.72386 6.5 2V3.5H13.5V2C13.5 1.72386 13.7239 1.5 14 1.5C14.2761 1.5 14.5 1.72386 14.5 2V3.5H15.5C17.1569 3.5 18.5 4.84315 18.5 6.5V15.5C18.5 17.1569 17.1569 18.5 15.5 18.5H4.5C2.84315 18.5 1.5 17.1569 1.5 15.5V6.5C1.5 4.84315 2.84315 3.5 4.5 3.5H5.5V2C5.5 1.72386 5.72386 1.5 6 1.5ZM13.5 4.5V6C13.5 6.27614 13.7239 6.5 14 6.5C14.2761 6.5 14.5 6.27614 14.5 6V4.5H15.5C16.6046 4.5 17.5 5.39543 17.5 6.5V15.5C17.5 16.6046 16.6046 17.5 15.5 17.5H4.5C3.39543 17.5 2.5 16.6046 2.5 15.5V6.5C2.5 5.39543 3.39543 4.5 4.5 4.5H5.5V6C5.5 6.27614 5.72386 6.5 6 6.5C6.27614 6.5 6.5 6.27614 6.5 6V4.5H13.5ZM6.5 9.5V10.5H5.5V9.5H6.5ZM4.5 9.5C4.5 8.94772 4.94772 8.5 5.5 8.5H6.5C7.05228 8.5 7.5 8.94772 7.5 9.5V10.5C7.5 11.0523 7.05228 11.5 6.5 11.5H5.5C4.94772 11.5 4.5 11.0523 4.5 10.5V9.5ZM10.5 9.5H9.5V10.5H10.5V9.5ZM9.5 8.5C8.94772 8.5 8.5 8.94772 8.5 9.5V10.5C8.5 11.0523 8.94772 11.5 9.5 11.5H10.5C11.0523 11.5 11.5 11.0523 11.5 10.5V9.5C11.5 8.94772 11.0523 8.5 10.5 8.5H9.5ZM13.5 10.5V9.5H14.5V10.5H13.5ZM12.5 9.5C12.5 8.94772 12.9477 8.5 13.5 8.5H14.5C15.0523 8.5 15.5 8.94772 15.5 9.5V10.5C15.5 11.0523 15.0523 11.5 14.5 11.5H13.5C12.9477 11.5 12.5 11.0523 12.5 10.5V9.5Z" fill="#5458FB"/>
</svg>
