<svg width="16" height="20" viewBox="0 0 16 20" fill="none" xmlns="http://www.w3.org/2000/svg">
<path fill-rule="evenodd" clip-rule="evenodd" d="M4 0.5C2.61929 0.5 1.5 1.61929 1.5 3V3.7C1.5 3.97614 1.72386 4.2 2 4.2C2.27614 4.2 2.5 3.97614 2.5 3.7V3C2.5 2.17157 3.17157 1.5 4 1.5H9.5V4C9.5 5.38071 10.6193 6.5 12 6.5H14.5V12.4V17C14.5 17.8284 13.8284 18.5 13 18.5H4C3.17157 18.5 2.5 17.8284 2.5 17V16.3C2.5 16.0239 2.27614 15.8 2 15.8C1.72386 15.8 1.5 16.0239 1.5 16.3V17C1.5 18.3807 2.61929 19.5 4 19.5H13C14.3807 19.5 15.5 18.3807 15.5 17V12.4V5.62068C15.5 4.96337 15.2411 4.33251 14.7794 3.86466L12.1932 1.24398L11.8396 1.59295L12.1932 1.24398C11.7235 0.767958 11.0826 0.5 10.4138 0.5H4ZM14.4951 5.5C14.4669 5.14973 14.3163 4.81901 14.0677 4.56707L11.4815 1.94639C11.2199 1.6813 10.8698 1.52375 10.5 1.50248V4C10.5 4.82843 11.1716 5.5 12 5.5H14.4951ZM13.5 8C13.5 7.72386 13.2761 7.5 13 7.5H11C10.7239 7.5 10.5 7.72386 10.5 8V10V12C10.5 12.2761 10.7239 12.5 11 12.5C11.2761 12.5 11.5 12.2761 11.5 12V10.5H12C12.2761 10.5 12.5 10.2761 12.5 10C12.5 9.72386 12.2761 9.5 12 9.5H11.5V8.5L13 8.5C13.2761 8.5 13.5 8.27614 13.5 8ZM1.5 9.5V8.5H3C3.27614 8.5 3.5 8.72386 3.5 9C3.5 9.27614 3.27614 9.5 3 9.5H1.5ZM3 10.5H1.5V12C1.5 12.2761 1.27614 12.5 1 12.5C0.723858 12.5 0.5 12.2761 0.5 12V10V8C0.5 7.72386 0.723858 7.5 1 7.5H3C3.82843 7.5 4.5 8.17157 4.5 9C4.5 9.82843 3.82843 10.5 3 10.5ZM6 7.5C5.72386 7.5 5.5 7.72386 5.5 8V12C5.5 12.2761 5.72386 12.5 6 12.5H7C8.38071 12.5 9.5 11.3807 9.5 10C9.5 8.61929 8.38071 7.5 7 7.5H6ZM7 11.5H6.5V8.5H7C7.82843 8.5 8.5 9.17157 8.5 10C8.5 10.8284 7.82843 11.5 7 11.5Z" fill="#222A3C"/>
</svg>
