<svg width="16" height="16" viewBox="0 0 16 16" fill="none" xmlns="http://www.w3.org/2000/svg">
<path fill-rule="evenodd" clip-rule="evenodd" d="M11.0354 4.17673C11.0354 5.80504 9.69229 7.15346 8.00016 7.15346C6.30803 7.15346 4.96489 5.80504 4.96489 4.17673C4.96489 2.54842 6.30803 1.2 8.00016 1.2C9.69229 1.2 11.0354 2.54842 11.0354 4.17673ZM12.2354 4.17673C12.2354 6.48347 10.3392 8.35346 8.00016 8.35346C5.66109 8.35346 3.76489 6.48347 3.76489 4.17673C3.76489 1.86998 5.66109 0 8.00016 0C10.3392 0 12.2354 1.86998 12.2354 4.17673ZM8 10.5334C11.3659 10.5334 14.1501 12.8928 14.7791 16H16C15.3563 12.2164 12.0195 9.3334 8 9.3334C3.98045 9.3334 0.643711 12.2164 0 16H1.22094C1.84989 12.8928 4.63412 10.5334 8 10.5334Z" fill="#222A3C"/>
</svg>
