<svg width="19" height="14" viewBox="0 0 19 14" fill="none" xmlns="http://www.w3.org/2000/svg">
<path fill-rule="evenodd" clip-rule="evenodd" d="M16.4397 8.75244V4.17882C16.4397 1.87105 14.5689 0.000244141 12.2611 0.000244141H7.43851C7.18209 0.000244141 6.97423 0.208113 6.97423 0.46453C6.97423 0.720948 7.18209 0.928817 7.43851 0.928817H12.2611C14.056 0.928817 15.5111 2.38389 15.5111 4.17882V8.75194L13.7685 6.69948C13.6025 6.50401 13.3095 6.48009 13.114 6.64605C12.9186 6.81201 12.8947 7.10501 13.0606 7.30048L15.6217 10.3169C15.7099 10.4208 15.8393 10.4807 15.9756 10.4807C16.1119 10.4807 16.2413 10.4208 16.3295 10.3169L18.8906 7.30048C19.0566 7.10501 19.0326 6.81201 18.8372 6.64605C18.6417 6.48009 18.3487 6.50401 18.1828 6.69948L16.4397 8.75244ZM4.37782 3.6831C4.28961 3.5792 4.1602 3.51931 4.0239 3.51931C3.8876 3.51931 3.75819 3.5792 3.66998 3.6831L1.10891 6.69949C0.942946 6.89496 0.966865 7.18795 1.16233 7.35391C1.3578 7.51987 1.65079 7.49595 1.81675 7.30049L3.5597 5.24767V9.82118C3.5597 12.1289 5.43051 13.9998 7.73828 13.9998H12.5609C12.8173 13.9998 13.0252 13.7919 13.0252 13.5355C13.0252 13.279 12.8173 13.0712 12.5609 13.0712H7.73828C5.94335 13.0712 4.48827 11.6161 4.48827 9.82118V5.24788L6.23104 7.30049C6.397 7.49595 6.69 7.51987 6.88547 7.35391C7.08093 7.18795 7.10485 6.89496 6.93889 6.69949L4.37782 3.6831Z" fill="#222A3C"/>
</svg>
